# xmcd
#
# Track frame offsets:
#	150
#	25962
#	55949
#	79728
#	108034
#	129258
#	145664
#	167136
#	197444
#	213655
#
# Disc length: 3158 seconds
#
# Revision: 0
# Processed by: cddbd v1.5.1PL0 Copyright (c) Steve Scherf et al.
# Submitted via: dBpowerAMP V4.0
#
DISCID=800c540a
DTITLE=Leif Espinosa - En tu Secreto
DYEAR=2004
DGENRE=Gospel
TTITLE0=En tu Secreto
TTITLE1=Vives en mi Corazon
TTITLE2=Asi es la Vida
TTITLE3=Afiname
TTITLE4=Mujer Virtuosa
TTITLE5=Esta es mi Fe
TTITLE6=It's Enough
TTITLE7=Tu Prisionero
TTITLE8=Es ahi
TTITLE9=Si tu me Faltas
EXTD=
EXTT0=
EXTT1=
EXTT2=
EXTT3=
EXTT4=
EXTT5=
EXTT6=
EXTT7=
EXTT8=
EXTT9=
PLAYORDER=
